<svg width="14" height="14" viewBox="0 0 14 14" fill="none" xmlns="http://www.w3.org/2000/svg">
<path d="M14 7.00022C14.0009 5.66213 13.6182 4.35182 12.8974 3.22451C12.1765 2.09719 11.1476 1.20011 9.9326 0.639523C8.7176 0.0789376 7.36737 -0.12166 6.04188 0.0614913C4.71638 0.244643 3.47114 0.803869 2.45368 1.67293C1.43621 2.54198 0.689156 3.68446 0.300995 4.96501C-0.0871666 6.24557 -0.100165 7.61055 0.263539 8.89826C0.627244 10.186 1.35241 11.3425 2.35314 12.2307C3.35387 13.119 4.58823 13.7019 5.91 13.9102V9.00022H4.13V7.00022H5.91V5.46022C5.87083 5.0999 5.91145 4.73537 6.02896 4.39251C6.14647 4.04964 6.338 3.73683 6.58996 3.47629C6.84192 3.21574 7.14813 3.01383 7.48687 2.8849C7.8256 2.75596 8.18856 2.70316 8.55 2.73022C9.0761 2.73753 9.60091 2.78432 10.12 2.87022V4.59022H9.23C9.0786 4.56786 8.9241 4.58054 8.77838 4.62729C8.63266 4.67403 8.49961 4.7536 8.38948 4.85987C8.27935 4.96613 8.19508 5.09625 8.14316 5.24021C8.09124 5.38417 8.07305 5.53813 8.09 5.69022V7.00022H10L9.68 9.00022H8.09V13.8902C9.73308 13.6312 11.2302 12.7956 12.3132 11.533C13.3962 10.2705 13.9941 8.66359 14 7.00022Z" fill="black"/>
</svg>
