<svg width="14" height="12" viewBox="0 0 14 12" fill="none" xmlns="http://www.w3.org/2000/svg">
<path d="M4.40003 11.6902C5.47562 11.6981 6.54208 11.4923 7.53747 11.0847C8.53286 10.6771 9.43734 10.0757 10.1984 9.31562C10.9594 8.5555 11.5619 7.65176 11.9707 6.65687C12.3796 5.66198 12.5867 4.59578 12.58 3.52018C12.58 3.39018 12.58 3.27018 12.58 3.14018C13.1359 2.73322 13.6164 2.23237 14 1.66018C13.475 1.8902 12.9191 2.04182 12.35 2.11018C12.9508 1.75266 13.3993 1.18678 13.61 0.520176C13.0462 0.852506 12.4312 1.08905 11.79 1.22018C11.356 0.761339 10.7831 0.457911 10.1597 0.356618C9.53627 0.255324 8.89683 0.361783 8.33984 0.659599C7.78286 0.957416 7.33922 1.43007 7.07725 2.00479C6.81527 2.5795 6.74949 3.2244 6.89003 3.84018C5.7537 3.77681 4.64306 3.47731 3.62893 2.96078C2.61481 2.44425 1.71947 1.72202 1.00003 0.840176C0.632998 1.47192 0.520726 2.21987 0.6861 2.93153C0.851474 3.6432 1.28204 4.265 1.89003 4.67018C1.43413 4.65593 0.988312 4.53247 0.590029 4.31018C0.590681 4.97191 0.819986 5.6131 1.23912 6.12517C1.65826 6.63725 2.24147 6.98875 2.89003 7.12018C2.47053 7.24171 2.02768 7.25887 1.60003 7.17018C1.78305 7.74099 2.13962 8.24047 2.62003 8.59898C3.10043 8.95749 3.68073 9.15717 4.28003 9.17018C3.26166 9.96897 2.0043 10.4022 0.710029 10.4002C0.490029 10.4002 0.260029 10.4002 0.0300293 10.4002C1.34326 11.2419 2.87021 11.6896 4.43003 11.6902" fill="black"/>
</svg>
